<svg width="37" height="37" viewBox="0 0 37 37" fill="none" xmlns="http://www.w3.org/2000/svg">
<rect x="0.457031" y="0.619141" width="36.363" height="36.363" rx="5" fill="black"/>
<path d="M31.7767 13.3837C31.7619 12.2733 31.5537 11.174 31.1614 10.1348C30.8212 9.25831 30.3016 8.46227 29.6358 7.79758C28.97 7.13289 28.1726 6.61416 27.2946 6.27453C26.2671 5.88947 25.1816 5.68125 24.0844 5.65876C22.6716 5.59572 22.2237 5.57812 18.6375 5.57812C15.0512 5.57812 14.5916 5.57813 13.1891 5.65876C12.0923 5.68142 11.0073 5.88963 9.9803 6.27453C9.10219 6.61392 8.30471 7.13257 7.63888 7.79729C6.97305 8.46201 6.45354 9.25817 6.11358 10.1348C5.7271 11.1598 5.519 12.2433 5.49826 13.3383C5.43511 14.7502 5.41602 15.1973 5.41602 18.7776C5.41602 22.3579 5.41602 22.8153 5.49826 24.2169C5.52028 25.3135 5.72735 26.3955 6.11358 27.4233C6.45411 28.2997 6.97401 29.0955 7.64006 29.76C8.30611 30.4244 9.10367 30.9428 9.98177 31.2821C11.006 31.6827 12.0912 31.9058 13.1906 31.9419C14.6048 32.0049 15.0527 32.024 18.6389 32.024C22.2252 32.024 22.6848 32.024 24.0873 31.9419C25.1845 31.9203 26.2701 31.7126 27.2976 31.3276C28.1753 30.9875 28.9725 30.4687 29.6382 29.804C30.304 29.1394 30.8237 28.3436 31.1643 27.4673C31.5505 26.441 31.7576 25.359 31.7796 24.2609C31.8428 22.8505 31.8619 22.4033 31.8619 18.8216C31.8589 15.2413 31.8589 14.7868 31.7767 13.3837ZM18.6287 25.5481C14.878 25.5481 11.8395 22.5147 11.8395 18.7703C11.8395 15.0258 14.878 11.9924 18.6287 11.9924C20.4293 11.9924 22.1561 12.7065 23.4293 13.9776C24.7025 15.2487 25.4178 16.9727 25.4178 18.7703C25.4178 20.5679 24.7025 22.2918 23.4293 23.5629C22.1561 24.834 20.4293 25.5481 18.6287 25.5481ZM25.688 13.3222C25.4801 13.3224 25.2741 13.2816 25.082 13.2022C24.8898 13.1229 24.7152 13.0065 24.5682 12.8597C24.4211 12.7129 24.3045 12.5386 24.225 12.3467C24.1455 12.1549 24.1047 11.9493 24.1049 11.7417C24.1049 11.5342 24.1458 11.3288 24.2254 11.1371C24.3049 10.9455 24.4215 10.7713 24.5684 10.6246C24.7153 10.4779 24.8898 10.3616 25.0817 10.2822C25.2737 10.2028 25.4795 10.1619 25.6873 10.1619C25.8951 10.1619 26.1009 10.2028 26.2928 10.2822C26.4848 10.3616 26.6593 10.4779 26.8062 10.6246C26.9531 10.7713 27.0697 10.9455 27.1492 11.1371C27.2287 11.3288 27.2697 11.5342 27.2697 11.7417C27.2697 12.6155 26.5618 13.3222 25.688 13.3222Z" fill="white"/>
<path d="M18.631 22.7444C20.824 22.7444 22.6018 20.9666 22.6018 18.7736C22.6018 16.5805 20.824 14.8027 18.631 14.8027C16.438 14.8027 14.6602 16.5805 14.6602 18.7736C14.6602 20.9666 16.438 22.7444 18.631 22.7444Z" fill="white"/>
</svg>
