<svg width="37" height="37" viewBox="0 0 37 37" fill="none" xmlns="http://www.w3.org/2000/svg">
<rect x="0.217773" y="0.541016" width="36.363" height="36.363" rx="5" fill="black"/>
<path d="M18.7155 8.36523C19.4069 8.36912 21.1367 8.38595 22.9752 8.45975L23.6278 8.48823C25.478 8.57498 27.3269 8.72517 28.2448 8.98024C29.4684 9.32464 30.4291 10.3268 30.754 11.5982C31.2719 13.618 31.3367 17.5566 31.3444 18.5109L31.3457 18.7077V18.9329C31.3367 19.8872 31.2719 23.8271 30.754 25.8456C30.4252 27.1209 29.4632 28.1243 28.2448 28.4636C27.3269 28.7186 25.478 28.8688 23.6278 28.9556L22.9752 28.9853C21.1367 29.0578 19.4069 29.076 18.7155 29.0786L18.4112 29.0798H18.0811C16.618 29.0708 10.4991 29.0048 8.55177 28.4636C7.32953 28.1191 6.36753 27.117 6.04255 25.8456C5.52465 23.8258 5.45992 19.8872 5.45215 18.9329V18.5109C5.45992 17.5566 5.52465 13.6167 6.04255 11.5982C6.37142 10.3229 7.33341 9.31946 8.55306 8.98153C10.4991 8.43903 16.6193 8.373 18.0824 8.36523H18.7155ZM15.8088 14.1916V23.2548L23.5773 18.7232L15.8088 14.1916Z" fill="white"/>
</svg>
